<svg width="38" height="34" viewBox="0 0 38 34" fill="none" xmlns="http://www.w3.org/2000/svg">
<path d="M12.6666 0.541015C19.6622 0.541015 25.3333 5.97577 25.3333 12.6799C25.3333 19.384 19.6622 24.8187 12.6666 24.8187L-3.15788e-05 24.8187L-3.10482e-05 12.6799C-3.07551e-05 5.97577 5.67102 0.541015 12.6666 0.541015Z" fill="#17E073"/>
<path d="M18.9994 3.70703C25.995 3.70703 31.666 9.14179 31.666 15.8459C31.666 22.55 25.995 27.9848 18.9994 27.9848L6.33273 27.9848L6.33273 15.8459C6.33273 9.14179 12.0038 3.70703 18.9994 3.70703Z" fill="#FDC939"/>
<path d="M25.3331 8.98437C32.3287 8.98437 37.9998 14.4191 37.9998 21.1232C37.9998 27.8274 32.3287 33.2621 25.3331 33.2621L12.6665 33.2621L12.6665 21.1232C12.6665 14.4191 18.3375 8.98437 25.3331 8.98437Z" fill="#3A78F0"/>
</svg>