<svg width="32" height="32" viewBox="0 0 32 32" fill="none" xmlns="http://www.w3.org/2000/svg">
<path d="M8.48461 12.4765C7.97901 17.6573 7.1854 19.5517 6.7566 20.2237C6.6478 20.3901 6.7534 20.6141 6.9486 20.6397L15.7134 21.7885L16.2446 3.92609C16.2446 3.92609 9.41581 2.89249 8.48461 12.4765Z" fill="#441D39"/>
<path d="M26.0374 20.2237C25.6054 19.5517 24.8118 17.6573 24.3094 12.4765C23.3782 2.8925 16.3574 3.9197 16.3574 3.9197L17.0838 21.7853L25.8486 20.6365C26.047 20.6109 26.1494 20.3901 26.0406 20.2205L26.0374 20.2237Z" fill="#441D39"/>
<path d="M13.2543 20.6455L12.8223 24.2743L19.5039 24.0823L19.0559 20.6455H13.2543Z" fill="#FFC7A4"/>
<path d="M13.0039 22.739C13.0039 22.739 17.4999 23.1518 19.0839 21.1806V18.915L13.3847 19.4622L13.0039 22.739Z" fill="#F2B594"/>
<path d="M24.0345 13.3015C23.9577 12.4887 23.2953 12.3671 22.9721 12.3575C22.6553 8.10151 19.6569 3.92871 16.2489 3.92871C12.8409 3.92871 10.2297 8.10151 9.91293 12.3575C9.63453 12.3543 8.86013 12.4215 8.77693 13.3047C8.67453 14.3831 9.03613 15.2119 9.70813 15.5703C9.70813 15.5703 9.85213 15.6407 10.1817 15.6983V15.6759C11.0137 19.0871 13.5033 21.5607 16.4441 21.5607C19.3849 21.5607 21.8713 19.0903 22.7065 15.6823C22.9817 15.6279 23.1065 15.5703 23.1065 15.5703C23.7785 15.2119 24.1401 14.3831 24.0377 13.3047L24.0345 13.3015Z" fill="#FFC7A4"/>
<path d="M11.9405 11.4816C13.0221 11.2864 13.9789 11.44 14.4653 11.5328C14.6125 11.5616 14.7597 11.4912 14.8045 11.3696C14.8557 11.232 14.7597 11.0912 14.5933 11.0592C14.0397 10.9536 13.0445 10.7936 12.0013 11.1584C11.8413 11.216 11.5565 11.3728 11.6429 11.4976C11.6909 11.5424 11.7965 11.504 11.9405 11.4784V11.4816Z" fill="#441D39"/>
<path d="M21.0008 11.4816C19.9192 11.2864 18.9624 11.44 18.476 11.5328C18.3288 11.5616 18.1816 11.4912 18.1368 11.3696C18.0856 11.232 18.1816 11.0912 18.348 11.0592C18.9016 10.9536 19.8968 10.7936 20.94 11.1584C21.1 11.216 21.3848 11.3728 21.2984 11.4976C21.2504 11.5424 21.1448 11.504 21.0008 11.4784V11.4816Z" fill="#441D39"/>
<path d="M19.5415 13.6985C19.7553 13.6985 19.9287 13.3976 19.9287 13.0265C19.9287 12.6554 19.7553 12.3545 19.5415 12.3545C19.3277 12.3545 19.1543 12.6554 19.1543 13.0265C19.1543 13.3976 19.3277 13.6985 19.5415 13.6985Z" fill="#441D39"/>
<path d="M13.7329 13.6985C13.9467 13.6985 14.1201 13.3976 14.1201 13.0265C14.1201 12.6554 13.9467 12.3545 13.7329 12.3545C13.5191 12.3545 13.3457 12.6554 13.3457 13.0265C13.3457 13.3976 13.5191 13.6985 13.7329 13.6985Z" fill="#441D39"/>
<path d="M16.8947 16.1847H16.2835C15.9603 16.1847 15.6979 16.0855 15.5955 15.9223C15.5379 15.8327 15.5315 15.7303 15.5763 15.6343C15.7171 15.3367 15.8323 15.0487 15.8323 15.0487C15.8643 14.9655 15.9603 14.9271 16.0403 14.9623C16.1235 14.9943 16.1619 15.0903 16.1267 15.1703C16.1267 15.1703 16.0083 15.4647 15.8643 15.7719C15.8803 15.7815 16.0115 15.8647 16.2835 15.8647H16.8947C16.9843 15.8647 17.0547 15.9351 17.0547 16.0247C17.0547 16.1143 16.9843 16.1847 16.8947 16.1847Z" fill="#EDA07E"/>
<path d="M16.3104 18.1977C15.5648 18.1977 14.9984 18.0953 14.9568 18.0857C14.8704 18.0697 14.8128 17.9865 14.8288 17.9001C14.8448 17.8137 14.9312 17.7561 15.0144 17.7721C15.0336 17.7721 16.816 18.1017 18.2112 17.5801C18.2944 17.5481 18.3872 17.5897 18.416 17.6729C18.448 17.7561 18.4064 17.8489 18.3232 17.8777C17.6544 18.1273 16.9216 18.1977 16.3072 18.1977H16.3104Z" fill="#EDA07E"/>
<path d="M19.8609 14.889C20.4777 14.889 20.9777 14.7743 20.9777 14.633C20.9777 14.4916 20.4777 14.377 19.8609 14.377C19.2441 14.377 18.7441 14.4916 18.7441 14.633C18.7441 14.7743 19.2441 14.889 19.8609 14.889Z" fill="#EAA281"/>
<path d="M13.3453 14.889C13.9621 14.889 14.4621 14.7743 14.4621 14.633C14.4621 14.4916 13.9621 14.377 13.3453 14.377C12.7285 14.377 12.2285 14.4916 12.2285 14.633C12.2285 14.7743 12.7285 14.889 13.3453 14.889Z" fill="#EAA281"/>
<path d="M10.1716 10.3125L9.85156 10.2933C10.1652 4.96206 15.1348 4.20367 15.186 4.19727L15.2308 4.51407C15.2308 4.51407 14.0212 4.69327 12.8052 5.49647C11.1828 6.56847 10.2996 8.18767 10.1716 10.3125Z" fill="#30132B"/>
<path d="M16.3574 3.92285V6.69725C16.3574 6.69725 21.0774 6.00285 23.0038 12.3581C23.0038 12.3581 24.3126 3.80765 16.3574 3.92605V3.92285Z" fill="#441D39"/>
<path d="M16.2446 3.92594V6.70034C16.2446 6.70034 11.8062 6.12114 9.87975 12.4763C9.87975 12.4763 8.28936 3.81074 16.2446 3.92594Z" fill="#441D39"/>
<path d="M28.7318 28.0959C26.5654 27.3663 21.7526 24.9471 20.063 24.0831C20.063 24.0735 20.063 24.0639 20.0566 24.0543L19.6854 22.8607C19.6342 22.6943 19.4806 22.5791 19.3046 22.5791H12.8886C12.6966 22.5791 12.5334 22.7135 12.4982 22.9023L12.031 24.0383C12.0182 24.0991 12.0214 24.1567 12.0342 24.2111C10.1654 25.1615 5.67898 27.4015 3.60858 28.0991C0.958984 28.9919 0.958984 33.5167 0.958984 33.5167H31.3846C31.3846 33.5167 31.3846 28.9919 28.735 28.0991L28.7318 28.0959Z" fill="#4598C4"/>
<path d="M9.98547 16.9469C9.89267 16.9469 9.85106 16.9469 9.83506 16.7741H9.82866C9.82866 16.7741 9.82866 16.7357 9.82866 16.6909C9.82226 16.5437 9.82227 16.3165 9.82227 15.9549C9.82227 15.5933 9.82226 15.3661 9.82866 15.2189C9.82866 15.1741 9.82866 15.1453 9.82866 15.1357H9.83506C9.85426 14.9629 9.89267 14.9629 9.98547 14.9629C10.0783 14.9629 10.1199 14.9629 10.1359 15.1357H10.1423C10.1423 15.1357 10.1423 15.1741 10.1423 15.2189C10.1487 15.3661 10.1487 15.5933 10.1487 15.9549C10.1487 16.3165 10.1487 16.5437 10.1423 16.6909C10.1423 16.7357 10.1423 16.7645 10.1423 16.7741H10.1359C10.1167 16.9469 10.0783 16.9469 9.98547 16.9469Z" fill="#FFA33A"/>
<path d="M23.1124 16.9469C23.0196 16.9469 22.978 16.9469 22.962 16.7741H22.9556C22.9556 16.7741 22.9556 16.7357 22.9556 16.6909C22.9492 16.5437 22.9492 16.3165 22.9492 15.9549C22.9492 15.5933 22.9492 15.3661 22.9556 15.2189C22.9556 15.1741 22.9556 15.1453 22.9556 15.1357H22.962C22.9812 14.9629 23.0196 14.9629 23.1124 14.9629C23.2052 14.9629 23.2468 14.9629 23.2628 15.1357H23.2692C23.2692 15.1357 23.2692 15.1741 23.2692 15.2189C23.2756 15.3661 23.2756 15.5933 23.2756 15.9549C23.2756 16.3165 23.2756 16.5437 23.2692 16.6909C23.2692 16.7357 23.2692 16.7645 23.2692 16.7741H23.2628C23.2436 16.9469 23.2052 16.9469 23.1124 16.9469Z" fill="#FFA33A"/>
<path d="M13.3234 25.0011C13.3234 25.0011 13.3042 25.0011 13.2978 25.0011C13.2114 24.9851 13.1506 24.9051 13.1666 24.8155L13.4098 23.3947C13.4258 23.3083 13.509 23.2507 13.5954 23.2635C13.6818 23.2795 13.7426 23.3595 13.7266 23.4491L13.4834 24.8699C13.4706 24.9467 13.4034 25.0043 13.3266 25.0043L13.3234 25.0011Z" fill="#2579AD"/>
<path d="M18.7444 25.0014C18.6676 25.0014 18.6004 24.947 18.5876 24.867L18.3444 23.4462C18.3284 23.3598 18.3892 23.2766 18.4756 23.2606C18.562 23.2478 18.6452 23.3054 18.6612 23.3918L18.9044 24.8126C18.9204 24.899 18.8596 24.9822 18.7732 24.9982C18.7636 24.9982 18.754 24.9982 18.7476 24.9982L18.7444 25.0014Z" fill="#2579AD"/>
<path d="M16.1756 25.136C16.086 25.136 16.0156 25.0656 16.0156 24.976V23.536C16.0156 23.4464 16.086 23.376 16.1756 23.376C16.2652 23.376 16.3356 23.4464 16.3356 23.536V24.976C16.3356 25.0656 16.2652 25.136 16.1756 25.136Z" fill="#2579AD"/>
</svg>