<svg width="32" height="32" viewBox="0 0 32 32" fill="none" xmlns="http://www.w3.org/2000/svg">
<path d="M22.8239 12.3612C22.8239 12.3612 23.9567 12.2236 24.0591 13.302C24.1615 14.3804 23.7999 15.2092 23.1279 15.5676C23.1279 15.5676 22.9839 15.638 22.6543 15.6956L22.8239 12.3644V12.3612Z" fill="#FFB69F"/>
<path d="M10.0082 12.3612C10.0082 12.3612 8.87542 12.2236 8.77302 13.302C8.67062 14.3804 9.03222 15.2092 9.70422 15.5676C9.70422 15.5676 9.84822 15.638 10.1778 15.6956L10.0082 12.3644V12.3612Z" fill="#FFB69F"/>
<path d="M0.958984 33.514C0.958984 33.514 0.958984 28.9892 3.60858 28.0964C6.25818 27.2036 12.2454 23.7764 12.2454 23.7764H16.2966V33.514H0.958984Z" fill="#F49037"/>
<path d="M31.3845 33.514C31.3845 33.514 31.3845 28.9892 28.7349 28.0964C26.0853 27.2036 20.1621 23.7764 20.1621 23.7764H16.0469V33.514H31.3845Z" fill="#F49037"/>
<path d="M13.2533 20.6465L12.8789 23.7761H19.4645L19.0549 20.6465H13.2533Z" fill="#FFB69F"/>
<path d="M16.1717 25.6489C17.9903 25.6489 19.4645 25.0085 19.4645 24.2185C19.4645 23.4285 17.9903 22.7881 16.1717 22.7881C14.3531 22.7881 12.8789 23.4285 12.8789 24.2185C12.8789 25.0085 14.3531 25.6489 16.1717 25.6489Z" fill="#FFB69F"/>
<path d="M13.0039 22.739C13.0039 22.739 17.4999 23.1518 19.0839 21.1806V18.915L13.3847 19.4622L13.0039 22.739Z" fill="#FF9988"/>
<path d="M16.4402 21.5552C20.0649 21.5552 23.0034 17.7987 23.0034 13.1648C23.0034 8.53092 20.0649 4.77441 16.4402 4.77441C12.8154 4.77441 9.87695 8.53092 9.87695 13.1648C9.87695 17.7987 12.8154 21.5552 16.4402 21.5552Z" fill="#FFB69F"/>
<path d="M22.1723 6.46445C22.1723 6.46445 22.1787 6.44845 22.1723 6.43885C21.9547 5.91725 21.6891 3.29645 17.4203 2.89965C16.3259 2.79725 14.7611 2.97965 13.7691 3.45325C12.4091 4.09965 10.8891 4.47085 9.54508 4.46765C9.48748 4.46765 9.46508 4.54445 9.51628 4.57325L10.5659 5.40845C10.6075 5.43085 10.6043 5.49165 10.5595 5.51085L9.24108 5.91085C9.19308 5.93005 9.19308 6.00045 9.24108 6.01645C9.45548 6.08685 9.99948 6.32685 10.4923 6.49645C9.68588 7.92365 9.87148 9.97485 9.87148 12.4388C9.87148 12.4388 9.84588 14.9924 10.7067 17.9204C11.6475 21.1204 13.7115 22.4932 16.6203 22.5028C19.7179 22.5156 21.3339 19.8596 21.7659 18.9156C22.4251 17.4692 22.9915 14.7812 22.9947 13.1652C22.9947 13.1652 24.1851 9.08205 22.1659 6.46445H22.1723ZM19.5419 18.3204C18.9019 18.6468 19.2251 16.9476 17.9515 16.8772C17.5259 16.8516 16.0795 16.7524 14.8635 16.8548C13.9387 16.9348 13.7147 17.7668 13.6731 18.1892C13.6539 18.3716 13.5899 18.4548 13.4171 18.3908C13.0331 18.25 12.2171 17.7956 11.8331 17.3732C11.4363 16.938 10.7195 15.7636 10.6523 13.2836L10.7227 9.74125C10.7227 9.74125 12.1467 8.54765 12.3931 7.69965C12.3931 7.69965 18.7547 8.71725 20.5979 7.69965C20.5979 7.69965 21.3691 9.17485 22.2107 9.61965C22.4699 9.75405 22.4251 11.4372 22.4027 12.5988C22.3803 12.7556 22.3611 12.9348 22.3515 13.146C22.1819 16.4644 20.1755 17.9972 19.5387 18.3236L19.5419 18.3204Z" fill="#B54D4D"/>
<path d="M19.5415 13.8372C19.7553 13.8372 19.9287 13.5363 19.9287 13.1652C19.9287 12.794 19.7553 12.4932 19.5415 12.4932C19.3277 12.4932 19.1543 12.794 19.1543 13.1652C19.1543 13.5363 19.3277 13.8372 19.5415 13.8372Z" fill="#441D39"/>
<path d="M13.7329 13.6995C13.9467 13.6995 14.1201 13.3986 14.1201 13.0275C14.1201 12.6563 13.9467 12.3555 13.7329 12.3555C13.5191 12.3555 13.3457 12.6563 13.3457 13.0275C13.3457 13.3986 13.5191 13.6995 13.7329 13.6995Z" fill="#441D39"/>
<path d="M16.8912 16.1862H16.28C16.008 16.1862 15.768 16.0806 15.64 15.9046C15.5472 15.7798 15.5216 15.6326 15.5664 15.4886C15.704 15.047 15.8832 13.399 15.8832 13.383C15.8928 13.2934 15.9696 13.2326 16.0592 13.2422C16.1456 13.2518 16.2096 13.3318 16.2 13.4182C16.1936 13.4886 16.0144 15.111 15.8704 15.5846C15.8576 15.6326 15.864 15.6742 15.896 15.719C15.9632 15.8086 16.1136 15.8694 16.28 15.8694H16.8912C16.9808 15.8694 17.0512 15.9398 17.0512 16.0294C17.0512 16.119 16.9808 16.1894 16.8912 16.1894V16.1862Z" fill="#FF9988"/>
<path d="M19.8805 14.8899C20.4973 14.8899 20.9973 14.7753 20.9973 14.6339C20.9973 14.4925 20.4973 14.3779 19.8805 14.3779C19.2637 14.3779 18.7637 14.4925 18.7637 14.6339C18.7637 14.7753 19.2637 14.8899 19.8805 14.8899Z" fill="#FF9988"/>
<path d="M13.3629 14.8899C13.9797 14.8899 14.4797 14.7753 14.4797 14.6339C14.4797 14.4925 13.9797 14.3779 13.3629 14.3779C12.7461 14.3779 12.2461 14.4925 12.2461 14.6339C12.2461 14.7753 12.7461 14.8899 13.3629 14.8899Z" fill="#FF9988"/>
<path d="M20.8982 11.6032C19.8326 11.2896 19.0166 11.488 18.5206 11.552C18.3094 11.5776 18.2646 11.3184 18.2646 11.3184C18.223 11.1424 18.4598 11.0208 18.6262 10.9888C19.1862 10.8864 19.903 10.8352 20.9654 11.2032C21.1702 11.2736 21.183 11.4464 21.183 11.4464C21.1606 11.6384 21.039 11.6416 20.8982 11.6V11.6032Z" fill="#B54D4D"/>
<path d="M12.3192 11.6229C13.3784 11.2901 14.1976 11.4757 14.6937 11.5301C14.9049 11.5525 14.9465 11.2933 14.9465 11.2933C14.9849 11.1173 14.7448 10.9989 14.5784 10.9701C14.0152 10.8773 13.2984 10.8357 12.2456 11.2229C12.0408 11.2965 12.0312 11.4693 12.0312 11.4693C12.0569 11.6613 12.1784 11.6613 12.316 11.6197L12.3192 11.6229Z" fill="#B54D4D"/>
<path d="M16.4053 18.7846C15.6501 18.7846 15.0485 18.6246 15.0101 18.615C14.9237 18.5926 14.8757 18.503 14.8981 18.4198C14.9205 18.3366 15.0101 18.2854 15.0933 18.3078C15.1093 18.311 16.5813 18.7014 17.7685 18.2374C17.8517 18.2054 17.9445 18.247 17.9765 18.327C18.0085 18.4102 17.9669 18.503 17.8869 18.535C17.3973 18.727 16.8725 18.7878 16.4085 18.7878L16.4053 18.7846Z" fill="#9B3D3D"/>
<path d="M13.0199 22.7549L15.5671 24.5725L14.3351 27.5229L11.0391 24.4541L13.0199 22.7549Z" fill="#FFA242"/>
<path d="M15.5662 24.5723L15.7198 25.6635L15.1406 25.5899L15.5662 24.5723Z" fill="#F49037"/>
<path d="M17.0189 24.5156L16.7949 25.6644L17.4221 25.5588L17.0189 24.5156Z" fill="#F49037"/>
<path d="M17.0195 24.5157L19.3523 22.8037L21.5379 24.5573L18.2867 27.8053L17.0195 24.5157Z" fill="#FFA242"/>
<path d="M16.7927 26.083H15.7207V33.5102H16.7927V26.083Z" fill="white"/>
<path d="M15.6985 25.511L15.7209 26.1638C15.7209 26.1638 16.2201 26.3814 16.7929 26.1638L16.8089 25.5718L15.6953 25.5078L15.6985 25.511Z" fill="#FFB69F"/>
<path d="M16.7927 27.6514H15.7207V27.9714H16.7927V27.6514Z" fill="#D6D6D6"/>
<path d="M16.7927 29.0947H15.7207V29.4147H16.7927V29.0947Z" fill="#D6D6D6"/>
<path d="M16.7927 30.5381H15.7207V30.8581H16.7927V30.5381Z" fill="#D6D6D6"/>
<path d="M16.7927 31.9805H15.7207V32.3005H16.7927V31.9805Z" fill="#D6D6D6"/>
<path d="M17.7054 29.405C17.861 29.405 17.987 29.2789 17.987 29.1234C17.987 28.9679 17.861 28.8418 17.7054 28.8418C17.5499 28.8418 17.4238 28.9679 17.4238 29.1234C17.4238 29.2789 17.5499 29.405 17.7054 29.405Z" fill="#FFA242"/>
<path d="M17.7054 32.5476C17.861 32.5476 17.987 32.4215 17.987 32.266C17.987 32.1105 17.861 31.9844 17.7054 31.9844C17.5499 31.9844 17.4238 32.1105 17.4238 32.266C17.4238 32.4215 17.5499 32.5476 17.7054 32.5476Z" fill="#FFA242"/>
</svg>