<svg width="24" height="24" viewBox="0 0 24 24" fill="none" xmlns="http://www.w3.org/2000/svg">
<path d="M11.5 8.5H18.5V13H19.5V8.5H20.5C20.6326 8.5 20.7598 8.44732 20.8536 8.35355C20.9473 8.25979 21 8.13261 21 8V6C21 5.86739 20.9473 5.74021 20.8536 5.64645C20.7598 5.55268 20.6326 5.5 20.5 5.5H17C17.3272 5.06864 17.5029 4.5414 17.5 4C17.5 3.33696 17.2366 2.70107 16.7678 2.23223C16.2989 1.76339 15.663 1.5 15 1.5C14.1725 1.50109 13.3612 1.73036 12.6555 2.1626C11.9498 2.59484 11.377 3.21331 11 3.95C10.623 3.21331 10.0502 2.59484 9.34447 2.1626C8.63877 1.73036 7.82755 1.50109 7 1.5C6.33696 1.5 5.70107 1.76339 5.23223 2.23223C4.76339 2.70107 4.5 3.33696 4.5 4C4.49706 4.5414 4.67281 5.06864 5 5.5H1.5C1.36739 5.5 1.24021 5.55268 1.14645 5.64645C1.05268 5.74021 1 5.86739 1 6V8C1 8.13261 1.05268 8.25979 1.14645 8.35355C1.24021 8.44732 1.36739 8.5 1.5 8.5H2.5V20C2.5 20.3978 2.65804 20.7794 2.93934 21.0607C3.22064 21.342 3.60218 21.5 4 21.5H14V20.5H11.5V8.5ZM15 2.5C15.3978 2.5 15.7794 2.65804 16.0607 2.93934C16.342 3.22064 16.5 3.60218 16.5 4C16.5 4.39782 16.342 4.77936 16.0607 5.06066C15.7794 5.34196 15.3978 5.5 15 5.5H11.535C11.6553 4.66685 12.0718 3.90495 12.7082 3.35395C13.3446 2.80296 14.1582 2.49978 15 2.5ZM5.5 4C5.5 3.60218 5.65804 3.22064 5.93934 2.93934C6.22064 2.65804 6.60218 2.5 7 2.5C7.84178 2.49978 8.65545 2.80296 9.29185 3.35395C9.92825 3.90495 10.3447 4.66685 10.465 5.5H7C6.60218 5.5 6.22064 5.34196 5.93934 5.06066C5.65804 4.77936 5.5 4.39782 5.5 4ZM2 6.5H20V7.5H2V6.5ZM3.5 20V8.5H10.5V20.5H4C3.86739 20.5 3.74021 20.4473 3.64645 20.3536C3.55268 20.2598 3.5 20.1326 3.5 20ZM18.5 13.5C17.61 13.5 16.74 13.7639 15.9999 14.2584C15.2599 14.7529 14.6831 15.4557 14.3425 16.2779C14.0019 17.1002 13.9128 18.005 14.0865 18.8779C14.2601 19.7508 14.6887 20.5526 15.318 21.182C15.9474 21.8113 16.7492 22.2399 17.6221 22.4135C18.495 22.5872 19.3998 22.4981 20.2221 22.1575C21.0443 21.8169 21.7471 21.2401 22.2416 20.5001C22.7361 19.76 23 18.89 23 18C23 16.8065 22.5259 15.6619 21.682 14.818C20.8381 13.9741 19.6935 13.5 18.5 13.5ZM18.5 21.5C17.8078 21.5 17.1311 21.2947 16.5555 20.9101C15.9799 20.5256 15.5313 19.9789 15.2664 19.3394C15.0015 18.6999 14.9322 17.9961 15.0673 17.3172C15.2023 16.6383 15.5356 16.0146 16.0251 15.5251C16.5146 15.0356 17.1383 14.7023 17.8172 14.5673C18.4961 14.4322 19.1999 14.5015 19.8394 14.7664C20.4789 15.0313 21.0256 15.4799 21.4101 16.0555C21.7947 16.6311 22 17.3078 22 18C22 18.9283 21.6313 19.8185 20.9749 20.4749C20.3185 21.1313 19.4283 21.5 18.5 21.5ZM19 16H20V17H18V17.5H19.5C19.6326 17.5 19.7598 17.5527 19.8536 17.6464C19.9473 17.7402 20 17.8674 20 18V19.5C20 19.6326 19.9473 19.7598 19.8536 19.8536C19.7598 19.9473 19.6326 20 19.5 20H19V20.5H18V20H17V19H19V18.5H17.5C17.3674 18.5 17.2402 18.4473 17.1464 18.3536C17.0527 18.2598 17 18.1326 17 18V16.5C17 16.3674 17.0527 16.2402 17.1464 16.1464C17.2402 16.0527 17.3674 16 17.5 16H18V15.5H19V16Z" fill="black"/>
</svg>