<svg width="16" height="15" viewBox="0 0 16 15" fill="none" xmlns="http://www.w3.org/2000/svg">
<path d="M2 3.75H3.33333H14" stroke="#EB001B" stroke-width="1.5" stroke-linecap="round" stroke-linejoin="round"/>
<path d="M12.6673 3.75V12.5C12.6673 12.8315 12.5268 13.1495 12.2768 13.3839C12.0267 13.6183 11.6876 13.75 11.334 13.75H4.66732C4.3137 13.75 3.97456 13.6183 3.72451 13.3839C3.47446 13.1495 3.33398 12.8315 3.33398 12.5V3.75M5.33398 3.75V2.5C5.33398 2.16848 5.47446 1.85054 5.72451 1.61612C5.97456 1.3817 6.3137 1.25 6.66732 1.25H9.33398C9.68761 1.25 10.0267 1.3817 10.2768 1.61612C10.5268 1.85054 10.6673 2.16848 10.6673 2.5V3.75" stroke="#EB001B" stroke-width="1.5" stroke-linecap="round" stroke-linejoin="round"/>
<path d="M6.66602 6.875V10.625" stroke="#EB001B" stroke-width="1.5" stroke-linecap="round" stroke-linejoin="round"/>
<path d="M9.33398 6.875V10.625" stroke="#EB001B" stroke-width="1.5" stroke-linecap="round" stroke-linejoin="round"/>
</svg>