<svg width="22" height="22" viewBox="0 0 22 22" fill="none" xmlns="http://www.w3.org/2000/svg">
<path d="M10.552 13.2876C10.552 12.893 10.616 12.5463 10.744 12.2476C10.872 11.949 11.0373 11.6823 11.24 11.4476C11.4426 11.213 11.656 10.9943 11.88 10.7916C12.1146 10.589 12.3333 10.3916 12.536 10.1996C12.7386 10.0076 12.904 9.80498 13.032 9.59165C13.16 9.37832 13.224 9.13832 13.224 8.87165C13.224 8.42365 13.0426 8.06098 12.68 7.78365C12.3173 7.50631 11.832 7.36765 11.224 7.36765C10.6373 7.36765 10.1253 7.47432 9.68797 7.68765C9.2613 7.90098 8.90396 8.20498 8.61596 8.59965L7.06396 7.59165C7.51196 6.98365 8.09863 6.50898 8.82396 6.16765C9.5493 5.81565 10.408 5.63965 11.4 5.63965C12.1786 5.63965 12.8613 5.75698 13.448 5.99165C14.0346 6.21565 14.4933 6.54631 14.824 6.98365C15.1546 7.41032 15.32 7.93298 15.32 8.55165C15.32 8.97832 15.2506 9.35165 15.112 9.67165C14.984 9.99165 14.8133 10.2743 14.6 10.5196C14.3973 10.7543 14.1786 10.9783 13.944 11.1916C13.7093 11.3943 13.4853 11.597 13.272 11.7996C13.0693 12.0023 12.904 12.221 12.776 12.4556C12.648 12.6903 12.584 12.9676 12.584 13.2876H10.552ZM11.576 17.1116C11.2026 17.1116 10.8933 16.989 10.648 16.7436C10.4133 16.4983 10.296 16.205 10.296 15.8636C10.296 15.5223 10.4133 15.2343 10.648 14.9996C10.8933 14.7543 11.2026 14.6316 11.576 14.6316C11.9493 14.6316 12.2533 14.7543 12.488 14.9996C12.7226 15.2343 12.84 15.5223 12.84 15.8636C12.84 16.205 12.7226 16.4983 12.488 16.7436C12.2533 16.989 11.9493 17.1116 11.576 17.1116Z" fill="#7D7D7D"/>
<circle cx="11" cy="11" r="10" stroke="#7D7D7D" stroke-width="2"/>
</svg>