<svg width="30" height="30" viewBox="0 0 30 30" fill="none" xmlns="http://www.w3.org/2000/svg">
<path d="M8.94926 13.4508L7.69926 13.2508L7.14926 12.1008C6.99926 11.7508 6.64926 11.5508 6.24926 11.5508C5.84926 11.5508 5.49926 11.7508 5.34926 12.1008L4.79926 13.2508L3.54926 13.4508C3.14926 13.5008 2.84926 13.7508 2.74926 14.1508C2.64926 14.5508 2.74926 14.9008 2.99926 15.2008L3.89926 16.0008L3.69926 17.2508C3.64926 17.6508 3.79926 18.0008 4.09926 18.2508C4.29926 18.4008 4.49926 18.4508 4.69926 18.4508C4.84926 18.4508 4.99926 18.4008 5.14926 18.3508L6.24926 17.7508L7.34926 18.3508C7.69926 18.5508 8.09926 18.5008 8.39926 18.2508C8.69926 18.0008 8.84926 17.6508 8.79926 17.2508L8.59926 16.0008L9.49926 15.1008C9.74926 14.8508 9.84926 14.4508 9.74926 14.0508C9.64926 13.7508 9.34926 13.5008 8.94926 13.4508ZM7.94926 15.3008C7.69926 15.5508 7.59926 15.8508 7.64926 16.2008L7.84926 17.4508L6.74926 16.8508C6.44926 16.7008 6.09926 16.7008 5.79926 16.8508L4.69926 17.4508L4.89926 16.2008C4.94926 15.9008 4.84926 15.5508 4.59926 15.3008L3.69926 14.4008L4.94926 14.2008C5.29926 14.1508 5.54926 13.9508 5.69926 13.6508L6.24926 12.5008L6.79926 13.6508C6.94926 13.9508 7.24926 14.1508 7.54926 14.2008L8.79926 14.4008L7.94926 15.3008ZM17.6993 13.4508L16.4493 13.2508L15.8993 12.1008C15.7493 11.7508 15.3993 11.5508 14.9993 11.5508C14.5993 11.5508 14.2493 11.7508 14.0993 12.1008L13.5493 13.2508L12.2993 13.4508C11.8993 13.5008 11.5993 13.7508 11.4993 14.1508C11.3993 14.5008 11.4993 14.9008 11.7493 15.2008L12.6493 16.1008L12.4493 17.3508C12.3993 17.7508 12.5493 18.1008 12.8493 18.3508C13.0493 18.5008 13.2493 18.5508 13.4493 18.5508C13.5993 18.5508 13.7493 18.5008 13.8993 18.4508L14.9993 17.8508L16.0993 18.4508C16.4493 18.6508 16.8493 18.6008 17.1493 18.3508C17.4493 18.1008 17.5993 17.7508 17.5493 17.3508L17.3493 16.0008L18.2493 15.1008C18.4993 14.8508 18.5993 14.4508 18.4993 14.0508C18.3993 13.7508 18.0993 13.5008 17.6993 13.4508ZM16.6493 15.3008C16.3993 15.5508 16.2993 15.8508 16.3493 16.2008L16.5493 17.4508L15.4493 16.8508C15.1493 16.7008 14.7993 16.7008 14.4993 16.8508L13.3993 17.4508L13.5993 16.2008C13.6493 15.9008 13.5493 15.5508 13.2993 15.3008L12.3993 14.4008L13.6493 14.2008C13.9993 14.1508 14.2493 13.9508 14.3993 13.6508L14.9493 12.5008L15.4993 13.6508C15.6493 13.9508 15.9493 14.1508 16.2493 14.2008L17.4993 14.4008L16.6493 15.3008ZM26.4493 13.4508L25.1993 13.2508L24.6493 12.1008C24.4993 11.7508 24.1493 11.5508 23.7493 11.5508C23.3493 11.5508 22.9993 11.7508 22.8493 12.1008L22.2993 13.2508L21.0493 13.4508C20.6493 13.5008 20.3493 13.7508 20.2493 14.1508C20.1493 14.5008 20.2493 14.9008 20.4993 15.2008L21.3993 16.1008L21.1993 17.3508C21.1493 17.7508 21.2993 18.1008 21.5993 18.3508C21.7993 18.5008 21.9993 18.5508 22.1993 18.5508C22.3493 18.5508 22.4993 18.5008 22.6493 18.4508L23.7493 17.8508L24.8493 18.4508C25.1993 18.6508 25.5993 18.6008 25.8993 18.3508C26.1993 18.1008 26.3493 17.7508 26.2993 17.3508L26.0993 16.0008L26.9993 15.1008C27.2493 14.8508 27.3493 14.4508 27.2493 14.0508C27.0993 13.7508 26.7993 13.5008 26.4493 13.4508ZM25.3993 15.3008C25.1493 15.5508 25.0493 15.8508 25.0993 16.2008L25.2993 17.4508L24.1993 16.8508C23.8993 16.7008 23.5493 16.7008 23.2493 16.8508L22.1493 17.4508L22.3493 16.2008C22.3993 15.9008 22.2993 15.5508 22.0493 15.3008L21.1493 14.4008L22.3993 14.2008C22.7493 14.1508 22.9993 13.9508 23.1493 13.6508L23.6993 12.5008L24.2493 13.6508C24.3993 13.9508 24.6993 14.1508 24.9993 14.2008L26.2493 14.4008L25.3993 15.3008Z" fill="white"/>
</svg>
