<svg width="18" height="26" viewBox="0 0 18 26" fill="none" xmlns="http://www.w3.org/2000/svg">
<circle cx="9" cy="13" r="9" fill="#EE2B28"/>
<path d="M11.516 9.704H7.628V11.756C7.796 11.548 8.036 11.38 8.348 11.252C8.66 11.116 8.992 11.048 9.344 11.048C9.984 11.048 10.508 11.188 10.916 11.468C11.324 11.748 11.62 12.108 11.804 12.548C11.988 12.98 12.08 13.444 12.08 13.94C12.08 14.86 11.816 15.6 11.288 16.16C10.768 16.72 10.024 17 9.056 17C8.144 17 7.416 16.772 6.872 16.316C6.328 15.86 6.02 15.264 5.948 14.528H7.58C7.652 14.848 7.812 15.104 8.06 15.296C8.316 15.488 8.64 15.584 9.032 15.584C9.504 15.584 9.86 15.436 10.1 15.14C10.34 14.844 10.46 14.452 10.46 13.964C10.46 13.468 10.336 13.092 10.088 12.836C9.848 12.572 9.492 12.44 9.02 12.44C8.684 12.44 8.404 12.524 8.18 12.692C7.956 12.86 7.796 13.084 7.7 13.364H6.092V8.228H11.516V9.704Z" fill="white"/>
</svg>
