<svg width="22" height="11" viewBox="0 0 22 11" fill="none" xmlns="http://www.w3.org/2000/svg">
<path d="M2.184 10V0.899999L2.982 1.726H0.112V0.199999H4.004V10H2.184ZM5.82203 10V8.782L9.71403 5.086C10.0407 4.778 10.2834 4.50733 10.442 4.274C10.6007 4.04067 10.7034 3.826 10.75 3.63C10.806 3.42467 10.834 3.23333 10.834 3.056C10.834 2.608 10.68 2.26267 10.372 2.02C10.064 1.768 9.61136 1.642 9.01403 1.642C8.53803 1.642 8.10403 1.726 7.71203 1.894C7.32936 2.062 6.99803 2.31867 6.71803 2.664L5.44403 1.684C5.8267 1.17067 6.34003 0.773999 6.98403 0.494C7.63736 0.204666 8.36536 0.0599995 9.16803 0.0599995C9.87736 0.0599995 10.4934 0.176666 11.016 0.409999C11.548 0.634 11.954 0.956 12.234 1.376C12.5234 1.796 12.668 2.29533 12.668 2.874C12.668 3.19133 12.626 3.50867 12.542 3.826C12.458 4.134 12.2994 4.46067 12.066 4.806C11.8327 5.15133 11.492 5.53867 11.044 5.968L7.69803 9.146L7.32003 8.46H13.046V10H5.82203ZM17.1765 10.14C16.4858 10.14 15.8091 10.042 15.1465 9.846C14.4931 9.64067 13.9425 9.36067 13.4945 9.006L14.2785 7.592C14.6331 7.88133 15.0625 8.11467 15.5665 8.292C16.0705 8.46933 16.5978 8.558 17.1485 8.558C17.8018 8.558 18.3105 8.42733 18.6745 8.166C19.0385 7.89533 19.2205 7.53133 19.2205 7.074C19.2205 6.626 19.0525 6.27133 18.7165 6.01C18.3805 5.74867 17.8391 5.618 17.0925 5.618H16.1965V4.372L18.9965 1.04L19.2345 1.726H13.9705V0.199999H20.6485V1.418L17.8485 4.75L16.8965 4.19H17.4425C18.6465 4.19 19.5471 4.46067 20.1445 5.002C20.7511 5.534 21.0545 6.22 21.0545 7.06C21.0545 7.61067 20.9145 8.11933 20.6345 8.586C20.3545 9.05267 19.9251 9.43067 19.3465 9.72C18.7771 10 18.0538 10.14 17.1765 10.14Z" fill="white"/>
</svg>