<svg width="24" height="24" viewBox="0 0 24 24" fill="none" xmlns="http://www.w3.org/2000/svg">
<circle cx="12" cy="12" r="11.5" stroke="#CBCBCB"/>
<path d="M11.696 17.14C11.0053 17.14 10.3287 17.042 9.666 16.846C9.01267 16.6407 8.462 16.3607 8.014 16.006L8.798 14.592C9.15267 14.8813 9.582 15.1147 10.086 15.292C10.59 15.4693 11.1173 15.558 11.668 15.558C12.3213 15.558 12.83 15.4273 13.194 15.166C13.558 14.8953 13.74 14.5313 13.74 14.074C13.74 13.626 13.572 13.2713 13.236 13.01C12.9 12.7487 12.3587 12.618 11.612 12.618H10.716V11.372L13.516 8.04L13.754 8.726H8.49V7.2H15.168V8.418L12.368 11.75L11.416 11.19H11.962C13.166 11.19 14.0667 11.4607 14.664 12.002C15.2707 12.534 15.574 13.22 15.574 14.06C15.574 14.6107 15.434 15.1193 15.154 15.586C14.874 16.0527 14.4447 16.4307 13.866 16.72C13.2967 17 12.5733 17.14 11.696 17.14Z" fill="black"/>
</svg>