<svg width="24" height="24" viewBox="0 0 24 24" fill="none" xmlns="http://www.w3.org/2000/svg">
<circle cx="12" cy="12" r="12" fill="black"/>
<path d="M8.49 17V15.782L12.382 12.086C12.7087 11.778 12.9513 11.5073 13.11 11.274C13.2687 11.0407 13.3713 10.826 13.418 10.63C13.474 10.4247 13.502 10.2333 13.502 10.056C13.502 9.608 13.348 9.26267 13.04 9.02C12.732 8.768 12.2793 8.642 11.682 8.642C11.206 8.642 10.772 8.726 10.38 8.894C9.99733 9.062 9.666 9.31867 9.386 9.664L8.112 8.684C8.49467 8.17067 9.008 7.774 9.652 7.494C10.3053 7.20467 11.0333 7.06 11.836 7.06C12.5453 7.06 13.1613 7.17667 13.684 7.41C14.216 7.634 14.622 7.956 14.902 8.376C15.1913 8.796 15.336 9.29533 15.336 9.874C15.336 10.1913 15.294 10.5087 15.21 10.826C15.126 11.134 14.9673 11.4607 14.734 11.806C14.5007 12.1513 14.16 12.5387 13.712 12.968L10.366 16.146L9.988 15.46H15.714V17H8.49Z" fill="white"/>
</svg>