<svg width="30" height="30" viewBox="0 0 30 30" fill="none" xmlns="http://www.w3.org/2000/svg">
<path d="M8.95023 13.4508L7.70023 13.2508L7.15023 12.1008C7.00023 11.7508 6.65023 11.5508 6.25023 11.5508C5.85023 11.5508 5.50023 11.7508 5.35023 12.1008L4.80023 13.2508L3.55023 13.4508C3.15023 13.5008 2.85023 13.7508 2.75023 14.1508C2.65023 14.5508 2.75023 14.9008 3.00023 15.2008L3.90023 16.0008L3.70023 17.2508C3.65023 17.6508 3.80023 18.0008 4.10023 18.2508C4.30023 18.4008 4.50023 18.4508 4.70023 18.4508C4.85023 18.4508 5.00023 18.4008 5.15023 18.3508L6.25023 17.7508L7.35023 18.3508C7.70023 18.5508 8.10023 18.5008 8.40023 18.2508C8.70023 18.0008 8.85023 17.6508 8.80023 17.2508L8.60023 16.0008L9.50023 15.1008C9.75023 14.8508 9.85023 14.4508 9.75023 14.0508C9.65023 13.7508 9.35023 13.5008 8.95023 13.4508ZM7.95023 15.3008C7.70023 15.5508 7.60023 15.8508 7.65023 16.2008L7.85023 17.4508L6.75023 16.8508C6.45023 16.7008 6.10023 16.7008 5.80023 16.8508L4.70023 17.4508L4.90023 16.2008C4.95023 15.9008 4.85023 15.5508 4.60023 15.3008L3.70023 14.4008L4.95023 14.2008C5.30023 14.1508 5.55023 13.9508 5.70023 13.6508L6.25023 12.5008L6.80023 13.6508C6.95023 13.9508 7.25023 14.1508 7.55023 14.2008L8.80023 14.4008L7.95023 15.3008ZM17.7002 13.4508L16.4502 13.2508L15.9002 12.1008C15.7502 11.7508 15.4002 11.5508 15.0002 11.5508C14.6002 11.5508 14.2502 11.7508 14.1002 12.1008L13.5502 13.2508L12.3002 13.4508C11.9002 13.5008 11.6002 13.7508 11.5002 14.1508C11.4002 14.5008 11.5002 14.9008 11.7502 15.2008L12.6502 16.1008L12.4502 17.3508C12.4002 17.7508 12.5502 18.1008 12.8502 18.3508C13.0502 18.5008 13.2502 18.5508 13.4502 18.5508C13.6002 18.5508 13.7502 18.5008 13.9002 18.4508L15.0002 17.8508L16.1002 18.4508C16.4502 18.6508 16.8502 18.6008 17.1502 18.3508C17.4502 18.1008 17.6002 17.7508 17.5502 17.3508L17.3502 16.0008L18.2502 15.1008C18.5002 14.8508 18.6002 14.4508 18.5002 14.0508C18.4002 13.7508 18.1002 13.5008 17.7002 13.4508ZM16.6502 15.3008C16.4002 15.5508 16.3002 15.8508 16.3502 16.2008L16.5502 17.4508L15.4502 16.8508C15.1502 16.7008 14.8002 16.7008 14.5002 16.8508L13.4002 17.4508L13.6002 16.2008C13.6502 15.9008 13.5502 15.5508 13.3002 15.3008L12.4002 14.4008L13.6502 14.2008C14.0002 14.1508 14.2502 13.9508 14.4002 13.6508L14.9502 12.5008L15.5002 13.6508C15.6502 13.9508 15.9502 14.1508 16.2502 14.2008L17.5002 14.4008L16.6502 15.3008ZM26.4502 13.4508L25.2002 13.2508L24.6502 12.1008C24.5002 11.7508 24.1502 11.5508 23.7502 11.5508C23.3502 11.5508 23.0002 11.7508 22.8502 12.1008L22.3002 13.2508L21.0502 13.4508C20.6502 13.5008 20.3502 13.7508 20.2502 14.1508C20.1502 14.5008 20.2502 14.9008 20.5002 15.2008L21.4002 16.1008L21.2002 17.3508C21.1502 17.7508 21.3002 18.1008 21.6002 18.3508C21.8002 18.5008 22.0002 18.5508 22.2002 18.5508C22.3502 18.5508 22.5002 18.5008 22.6502 18.4508L23.7502 17.8508L24.8502 18.4508C25.2002 18.6508 25.6002 18.6008 25.9002 18.3508C26.2002 18.1008 26.3502 17.7508 26.3002 17.3508L26.1002 16.0008L27.0002 15.1008C27.2502 14.8508 27.3502 14.4508 27.2502 14.0508C27.1002 13.7508 26.8002 13.5008 26.4502 13.4508ZM25.4002 15.3008C25.1502 15.5508 25.0502 15.8508 25.1002 16.2008L25.3002 17.4508L24.2002 16.8508C23.9002 16.7008 23.5502 16.7008 23.2502 16.8508L22.1502 17.4508L22.3502 16.2008C22.4002 15.9008 22.3002 15.5508 22.0502 15.3008L21.1502 14.4008L22.4002 14.2008C22.7502 14.1508 23.0002 13.9508 23.1502 13.6508L23.7002 12.5008L24.2502 13.6508C24.4002 13.9508 24.7002 14.1508 25.0002 14.2008L26.2502 14.4008L25.4002 15.3008Z" fill="black"/>
</svg>