<svg width="23" height="29" viewBox="0 0 23 29" fill="none" xmlns="http://www.w3.org/2000/svg">
<path d="M18.5497 5.84752C20.4 6.26677 21.7944 7.94211 21.7944 9.93039V10.0852C21.7944 10.2699 21.6458 10.4195 21.4627 10.4195H13.8297C13.6469 10.4195 13.4983 10.2699 13.4983 10.0852V9.93039C13.4983 7.90594 14.9413 6.20648 16.8416 5.82615C17.4036 5.7149 17.992 5.71955 18.5497 5.84752ZM6.25679 11.8178C8.10703 12.2371 9.50117 13.9124 9.50117 15.9007V16.0552C9.50117 16.2399 9.35258 16.3898 9.16975 16.3898H1.53677C1.35367 16.3898 1.20508 16.2399 1.20508 16.0552V15.9007C1.20508 13.8762 2.64838 12.1768 4.54862 11.7964C5.1104 11.6852 5.69881 11.6899 6.25679 11.8178ZM5.35326 6.81015C6.63738 6.81015 7.68081 7.86265 7.68081 9.15793C7.68081 10.4546 6.63874 11.5057 5.35326 11.5057C4.06806 11.5057 3.02571 10.454 3.02571 9.15793C3.02571 7.8632 4.06942 6.81015 5.35326 6.81015ZM5.35326 7.47902C4.43262 7.47902 3.68883 8.22928 3.68883 9.15793C3.68883 10.0866 4.43289 10.8368 5.35326 10.8368C6.27254 10.8368 7.01769 10.0852 7.01769 9.15793C7.01769 8.23011 6.27336 7.47902 5.35326 7.47902ZM6.78516 12.6985L5.63551 14.6062C5.50593 14.8224 5.19624 14.8175 5.07047 14.6054L3.92136 12.6985C2.76819 13.2276 1.94126 14.3739 1.87281 15.7209H8.83371C8.76553 14.3736 7.93888 13.2274 6.78516 12.6985ZM4.56111 12.4782L5.35326 13.7929L6.14541 12.4782C5.62655 12.3544 5.08025 12.3546 4.56111 12.4782ZM11.4038 13.4792C11.0955 13.7902 10.6266 13.3172 10.935 13.0062L11.9906 11.9414H8.25889C7.82288 11.9414 7.82288 11.2723 8.25889 11.2723H12.0042L10.935 10.1937C10.6266 9.88271 11.0955 9.40975 11.4038 9.72076L13.0324 11.3635C13.1617 11.4939 13.1617 11.706 13.0324 11.8365L11.4038 13.4792ZM18.5497 17.7881C20.4 18.2074 21.7944 19.8827 21.7944 21.871V22.0255C21.7944 22.2102 21.6458 22.3601 21.4627 22.3601H13.8297C13.6469 22.3601 13.4983 22.2102 13.4983 22.0255V21.871C13.4983 19.8465 14.9413 18.1471 16.8416 17.7668C17.4036 17.6555 17.992 17.6602 18.5497 17.7881ZM17.6462 12.7804C18.9303 12.7804 19.9738 13.833 19.9738 15.1282C19.9738 16.4249 18.9317 17.4763 17.6462 17.4763C16.3613 17.4763 15.3187 16.4243 15.3187 15.1282C15.3187 13.8335 16.3624 12.7804 17.6462 12.7804ZM17.6462 13.4493C16.7256 13.4493 15.9818 14.1996 15.9818 15.1282C15.9818 16.0569 16.7259 16.8071 17.6462 16.8071C18.5655 16.8071 19.3107 16.0558 19.3107 15.1282C19.3107 14.2004 18.5663 13.4493 17.6462 13.4493ZM19.0781 18.6688L17.9285 20.5765C17.7989 20.7927 17.4892 20.7878 17.3634 20.5757L16.2143 18.6688C15.0611 19.1979 14.2342 20.3442 14.1658 21.6912H21.1267C21.0585 20.3439 20.2321 19.1977 19.0781 18.6688ZM16.8541 18.4488L17.6462 19.7632L18.4384 18.4485C17.9198 18.3247 17.3732 18.3249 16.8541 18.4488ZM17.6462 0.839844C18.9303 0.839844 19.9738 1.89235 19.9738 3.1879C19.9738 4.48428 18.9317 5.53569 17.6462 5.53569C16.3613 5.53569 15.3187 4.48401 15.3187 3.1879C15.3187 1.89289 16.3624 0.839844 17.6462 0.839844ZM17.6462 1.509C16.7256 1.509 15.9818 2.25926 15.9818 3.1879C15.9818 4.11628 16.7259 4.86681 17.6462 4.86681C18.5655 4.86681 19.3107 4.11518 19.3107 3.1879C19.3107 2.2598 18.5663 1.509 17.6462 1.509ZM19.0781 6.72821L17.9285 8.63593C17.7989 8.85213 17.4892 8.84719 17.3634 8.63511L16.2143 6.72849C15.0611 7.25762 14.2342 8.40356 14.1658 9.75063H21.1267C21.0585 8.40329 20.2321 7.25707 19.0781 6.72821ZM16.8541 6.50818L17.6462 7.82264L18.4384 6.5079C17.9198 6.38432 17.3732 6.3846 16.8541 6.50818Z" fill="black"/>
</svg>