<svg width="23" height="29" viewBox="0 0 23 29" fill="none" xmlns="http://www.w3.org/2000/svg">
<path d="M18.5502 5.84752C20.4005 6.26677 21.7949 7.94211 21.7949 9.93039V10.0852C21.7949 10.2699 21.6463 10.4195 21.4632 10.4195H13.8302C13.6474 10.4195 13.4988 10.2699 13.4988 10.0852V9.93039C13.4988 7.90594 14.9418 6.20648 16.8421 5.82615C17.4041 5.7149 17.9925 5.71955 18.5502 5.84752ZM6.25728 11.8178C8.10752 12.2371 9.50166 13.9124 9.50166 15.9007V16.0552C9.50166 16.2399 9.35306 16.3898 9.17024 16.3898H1.53726C1.35416 16.3898 1.20557 16.2399 1.20557 16.0552V15.9007C1.20557 13.8762 2.64887 12.1768 4.5491 11.7964C5.11089 11.6852 5.69929 11.6899 6.25728 11.8178ZM5.35375 6.81015C6.63787 6.81015 7.68129 7.86265 7.68129 9.15793C7.68129 10.4546 6.63922 11.5057 5.35375 11.5057C4.06855 11.5057 3.0262 10.454 3.0262 9.15793C3.0262 7.8632 4.0699 6.81015 5.35375 6.81015ZM5.35375 7.47902C4.43311 7.47902 3.68931 8.22928 3.68931 9.15793C3.68931 10.0866 4.43338 10.8368 5.35375 10.8368C6.27303 10.8368 7.01818 10.0852 7.01818 9.15793C7.01818 8.23011 6.27385 7.47902 5.35375 7.47902ZM6.78565 12.6985L5.636 14.6062C5.50642 14.8224 5.19673 14.8175 5.07096 14.6054L3.92185 12.6985C2.76867 13.2276 1.94175 14.3739 1.8733 15.7209H8.8342C8.76602 14.3736 7.93937 13.2274 6.78565 12.6985ZM4.5616 12.4782L5.35375 13.7929L6.1459 12.4782C5.62703 12.3544 5.08073 12.3546 4.5616 12.4782ZM11.4043 13.4792C11.096 13.7902 10.6271 13.3172 10.9355 13.0062L11.9911 11.9414H8.25938C7.82337 11.9414 7.82337 11.2723 8.25938 11.2723H12.0047L10.9355 10.1937C10.6271 9.88271 11.096 9.40975 11.4043 9.72076L13.0329 11.3635C13.1622 11.4939 13.1622 11.706 13.0329 11.8365L11.4043 13.4792ZM18.5502 17.7881C20.4005 18.2074 21.7949 19.8827 21.7949 21.871V22.0255C21.7949 22.2102 21.6463 22.3601 21.4632 22.3601H13.8302C13.6474 22.3601 13.4988 22.2102 13.4988 22.0255V21.871C13.4988 19.8465 14.9418 18.1471 16.8421 17.7668C17.4041 17.6555 17.9925 17.6602 18.5502 17.7881ZM17.6467 12.7804C18.9308 12.7804 19.9743 13.833 19.9743 15.1282C19.9743 16.4249 18.9322 17.4763 17.6467 17.4763C16.3618 17.4763 15.3192 16.4243 15.3192 15.1282C15.3192 13.8335 16.3629 12.7804 17.6467 12.7804ZM17.6467 13.4493C16.7261 13.4493 15.9823 14.1996 15.9823 15.1282C15.9823 16.0569 16.7263 16.8071 17.6467 16.8071C18.566 16.8071 19.3111 16.0558 19.3111 15.1282C19.3111 14.2004 18.5668 13.4493 17.6467 13.4493ZM19.0786 18.6688L17.929 20.5765C17.7994 20.7927 17.4897 20.7878 17.3639 20.5757L16.2148 18.6688C15.0616 19.1979 14.2347 20.3442 14.1663 21.6912H21.1272C21.059 20.3439 20.2326 19.1977 19.0786 18.6688ZM16.8546 18.4488L17.6467 19.7632L18.4389 18.4485C17.9203 18.3247 17.3737 18.3249 16.8546 18.4488ZM17.6467 0.839844C18.9308 0.839844 19.9743 1.89235 19.9743 3.1879C19.9743 4.48428 18.9322 5.53569 17.6467 5.53569C16.3618 5.53569 15.3192 4.48401 15.3192 3.1879C15.3192 1.89289 16.3629 0.839844 17.6467 0.839844ZM17.6467 1.509C16.7261 1.509 15.9823 2.25926 15.9823 3.1879C15.9823 4.11628 16.7263 4.86681 17.6467 4.86681C18.566 4.86681 19.3111 4.11518 19.3111 3.1879C19.3111 2.2598 18.5668 1.509 17.6467 1.509ZM19.0786 6.72821L17.929 8.63593C17.7994 8.85213 17.4897 8.84719 17.3639 8.63511L16.2148 6.72849C15.0616 7.25762 14.2347 8.40356 14.1663 9.75063H21.1272C21.059 8.40329 20.2326 7.25707 19.0786 6.72821ZM16.8546 6.50818L17.6467 7.82264L18.4389 6.5079C17.9203 6.38432 17.3737 6.3846 16.8546 6.50818Z" fill="white"/>
</svg>