<svg width="22" height="22" viewBox="0 0 22 22" fill="none" xmlns="http://www.w3.org/2000/svg">
<path d="M21.1138 13.2882C20.4898 12.6902 20.1518 11.8582 20.1518 11.0002C20.1518 10.1422 20.4898 9.33616 21.1138 8.71216C21.2178 8.60816 21.3218 8.53016 21.4518 8.42616C21.6338 8.29616 21.6858 8.06216 21.6338 7.85416C21.4258 7.10016 21.1138 6.37216 20.7498 5.69616C20.6458 5.51416 20.4378 5.41016 20.2298 5.43616C20.0478 5.46216 19.9178 5.46216 19.7878 5.46216C17.9938 5.46216 16.5378 4.00616 16.5378 2.23816C16.5378 2.10816 16.5378 1.95216 16.5638 1.79616C16.5898 1.58816 16.4858 1.38016 16.3038 1.27616C15.6278 0.912159 14.8998 0.600159 14.1458 0.392159C13.9378 0.340159 13.7038 0.418159 13.5738 0.574159C13.4698 0.704159 13.3658 0.834159 13.2878 0.912159C12.6638 1.51016 11.8578 1.84816 10.9998 1.84816C10.1418 1.84816 9.30979 1.51016 8.71179 0.912159C8.60779 0.808159 8.52979 0.704159 8.42579 0.574159C8.29579 0.392159 8.06179 0.340159 7.85379 0.392159C7.09979 0.626159 6.37179 0.912159 5.69579 1.27616C5.51379 1.38016 5.40979 1.58816 5.43579 1.79616C5.46179 1.97816 5.46179 2.10816 5.46179 2.23816C5.46179 4.03216 4.00579 5.46216 2.21179 5.46216C2.08179 5.46216 1.92579 5.46216 1.76979 5.43616C1.56179 5.41016 1.35379 5.51416 1.24979 5.69616C0.885791 6.37216 0.573791 7.10016 0.365791 7.85416C0.313791 8.06216 0.365791 8.29616 0.547791 8.42616C0.703791 8.53016 0.807791 8.63416 0.885791 8.71216C2.15979 9.96016 2.15979 12.0142 0.885791 13.2882C0.781791 13.3922 0.677791 13.4702 0.547791 13.5742C0.365791 13.7042 0.313791 13.9382 0.365791 14.1462C0.599791 14.9002 0.885791 15.6282 1.24979 16.3042C1.35379 16.4862 1.56179 16.5902 1.76979 16.5642C1.95179 16.5382 2.08179 16.5382 2.21179 16.5382C4.00579 16.5382 5.46179 17.9942 5.46179 19.7622C5.46179 19.8922 5.46179 20.0482 5.43579 20.2042C5.40979 20.4122 5.51379 20.6202 5.69579 20.7242C6.37179 21.0882 7.09979 21.4002 7.85379 21.6082C8.06179 21.6602 8.29579 21.6082 8.42579 21.4262C8.52979 21.2962 8.63379 21.1662 8.71179 21.0882C9.33579 20.4902 10.1418 20.1522 10.9998 20.1522C11.8578 20.1522 12.6898 20.4902 13.2878 21.0882C13.3918 21.1922 13.4698 21.2962 13.5738 21.4262C13.6778 21.5562 13.8338 21.6342 13.9898 21.6342C14.0418 21.6342 14.0938 21.6342 14.1458 21.6082C14.8998 21.3742 15.6278 21.0882 16.3038 20.7242C16.4858 20.6202 16.5898 20.4122 16.5638 20.2042C16.5378 20.0222 16.5378 19.8922 16.5378 19.7622C16.5378 17.9682 17.9938 16.5382 19.7878 16.5382C19.9178 16.5382 20.0738 16.5382 20.2298 16.5642C20.4378 16.5902 20.6458 16.4862 20.7498 16.3042C21.1138 15.6282 21.4258 14.9002 21.6338 14.1462C21.6858 13.9382 21.6338 13.7042 21.4518 13.5742C21.3218 13.4702 21.1918 13.3922 21.1138 13.2882ZM19.9958 15.4982H19.7618C17.3958 15.4982 15.4718 17.4222 15.4718 19.7622V19.9962C15.0558 20.2042 14.6138 20.3862 14.1458 20.5422L13.9898 20.3862C13.1838 19.5802 12.1178 19.1382 10.9738 19.1382C9.82979 19.1382 8.76379 19.5802 7.95779 20.3862L7.80179 20.5422C7.35979 20.3862 6.91779 20.2042 6.47579 19.9962V19.7622C6.47579 17.3962 4.55179 15.4982 2.18579 15.4982H1.95179C1.74379 15.0822 1.56179 14.6402 1.40579 14.1722L1.56179 14.0162C3.22579 12.3522 3.22579 9.64816 1.56179 7.95816L1.40579 7.80216C1.56179 7.36016 1.74379 6.91816 1.95179 6.47616H2.18579C4.55179 6.47616 6.47579 4.55216 6.47579 2.21216V1.97816C6.89179 1.77016 7.33379 1.58816 7.80179 1.43216L7.95779 1.58816C8.76379 2.39416 9.82979 2.83616 10.9738 2.83616C12.1178 2.83616 13.1838 2.39416 13.9898 1.58816L14.1458 1.43216C14.5878 1.58816 15.0298 1.77016 15.4718 1.97816V2.21216C15.4718 4.57816 17.3958 6.47616 19.7618 6.47616H19.9958C20.2038 6.89216 20.3858 7.33416 20.5418 7.80216L20.3858 7.95816C19.5798 8.76416 19.1378 9.83016 19.1378 10.9742C19.1378 12.1182 19.5798 13.1842 20.3858 13.9902L20.5418 14.1462C20.3858 14.6402 20.2038 15.0822 19.9958 15.4982ZM10.9998 4.81216C7.59379 4.81216 4.81179 7.59416 4.81179 11.0002C4.81179 14.4062 7.59379 17.1882 10.9998 17.1882C14.4058 17.1882 17.1878 14.4062 17.1878 11.0002C17.1878 7.59416 14.4058 4.81216 10.9998 4.81216ZM10.9998 16.1482C8.16579 16.1482 5.85179 13.8342 5.85179 11.0002C5.85179 8.16616 8.16579 5.85216 10.9998 5.85216C13.8338 5.85216 16.1478 8.16616 16.1478 11.0002C16.1478 13.8342 13.8338 16.1482 10.9998 16.1482Z" fill="black"/>
</svg>