<svg width="26" height="26" viewBox="0 0 26 26" fill="none" xmlns="http://www.w3.org/2000/svg">
<g clip-path="url(#clip0_248_3958)">
<path d="M23.1148 15.2882C22.4908 14.6902 22.1528 13.8582 22.1528 13.0002C22.1528 12.1422 22.4908 11.3362 23.1148 10.7122C23.2188 10.6082 23.3228 10.5302 23.4528 10.4262C23.6348 10.2962 23.6868 10.0622 23.6348 9.85416C23.4268 9.10016 23.1148 8.37216 22.7508 7.69616C22.6468 7.51416 22.4388 7.41016 22.2308 7.43616C22.0488 7.46216 21.9188 7.46216 21.7888 7.46216C19.9948 7.46216 18.5388 6.00616 18.5388 4.23816C18.5388 4.10816 18.5388 3.95216 18.5648 3.79616C18.5908 3.58816 18.4868 3.38016 18.3048 3.27616C17.6288 2.91216 16.9008 2.60016 16.1468 2.39216C15.9388 2.34016 15.7048 2.41816 15.5748 2.57416C15.4708 2.70416 15.3668 2.83416 15.2888 2.91216C14.6648 3.51016 13.8588 3.84816 13.0008 3.84816C12.1428 3.84816 11.3108 3.51016 10.7128 2.91216C10.6088 2.80816 10.5308 2.70416 10.4268 2.57416C10.2968 2.39216 10.0628 2.34016 9.85477 2.39216C9.10077 2.62616 8.37277 2.91216 7.69677 3.27616C7.51477 3.38016 7.41077 3.58816 7.43677 3.79616C7.46277 3.97816 7.46277 4.10816 7.46277 4.23816C7.46277 6.03216 6.00677 7.46216 4.21277 7.46216C4.08277 7.46216 3.92677 7.46216 3.77077 7.43616C3.56277 7.41016 3.35477 7.51416 3.25077 7.69616C2.88677 8.37216 2.57477 9.10016 2.36677 9.85416C2.31477 10.0622 2.36677 10.2962 2.54877 10.4262C2.70477 10.5302 2.80877 10.6342 2.88677 10.7122C4.16077 11.9602 4.16077 14.0142 2.88677 15.2882C2.78277 15.3922 2.67877 15.4702 2.54877 15.5742C2.36677 15.7042 2.31477 15.9382 2.36677 16.1462C2.60077 16.9002 2.88677 17.6282 3.25077 18.3042C3.35477 18.4862 3.56277 18.5902 3.77077 18.5642C3.95277 18.5382 4.08277 18.5382 4.21277 18.5382C6.00677 18.5382 7.46277 19.9942 7.46277 21.7622C7.46277 21.8922 7.46277 22.0482 7.43677 22.2042C7.41077 22.4122 7.51477 22.6202 7.69677 22.7242C8.37277 23.0882 9.10077 23.4002 9.85477 23.6082C10.0628 23.6602 10.2968 23.6082 10.4268 23.4262C10.5308 23.2962 10.6348 23.1662 10.7128 23.0882C11.3368 22.4902 12.1428 22.1522 13.0008 22.1522C13.8588 22.1522 14.6908 22.4902 15.2888 23.0882C15.3928 23.1922 15.4708 23.2962 15.5748 23.4262C15.6788 23.5562 15.8348 23.6342 15.9908 23.6342C16.0428 23.6342 16.0948 23.6342 16.1468 23.6082C16.9008 23.3742 17.6288 23.0882 18.3048 22.7242C18.4868 22.6202 18.5908 22.4122 18.5648 22.2042C18.5388 22.0222 18.5388 21.8922 18.5388 21.7622C18.5388 19.9682 19.9948 18.5382 21.7888 18.5382C21.9188 18.5382 22.0748 18.5382 22.2308 18.5642C22.4388 18.5902 22.6468 18.4862 22.7508 18.3042C23.1148 17.6282 23.4268 16.9002 23.6348 16.1462C23.6868 15.9382 23.6348 15.7042 23.4528 15.5742C23.3228 15.4702 23.1928 15.3922 23.1148 15.2882ZM21.9968 17.4982H21.7628C19.3968 17.4982 17.4728 19.4222 17.4728 21.7622V21.9962C17.0568 22.2042 16.6148 22.3862 16.1468 22.5422L15.9908 22.3862C15.1848 21.5802 14.1188 21.1382 12.9748 21.1382C11.8308 21.1382 10.7648 21.5802 9.95877 22.3862L9.80277 22.5422C9.36077 22.3862 8.91877 22.2042 8.47677 21.9962V21.7622C8.47677 19.3962 6.55277 17.4982 4.18677 17.4982H3.95277C3.74477 17.0822 3.56277 16.6402 3.40677 16.1722L3.56277 16.0162C5.22677 14.3522 5.22677 11.6482 3.56277 9.95816L3.40677 9.80216C3.56277 9.36016 3.74477 8.91816 3.95277 8.47616H4.18677C6.55277 8.47616 8.47677 6.55216 8.47677 4.21216V3.97816C8.89277 3.77016 9.33477 3.58816 9.80277 3.43216L9.95877 3.58816C10.7648 4.39416 11.8308 4.83616 12.9748 4.83616C14.1188 4.83616 15.1848 4.39416 15.9908 3.58816L16.1468 3.43216C16.5888 3.58816 17.0308 3.77016 17.4728 3.97816V4.21216C17.4728 6.57816 19.3968 8.47616 21.7628 8.47616H21.9968C22.2048 8.89216 22.3868 9.33416 22.5428 9.80216L22.3868 9.95816C21.5808 10.7642 21.1388 11.8302 21.1388 12.9742C21.1388 14.1182 21.5808 15.1842 22.3868 15.9902L22.5428 16.1462C22.3868 16.6402 22.2048 17.0822 21.9968 17.4982ZM13.0008 6.81216C9.59477 6.81216 6.81277 9.59416 6.81277 13.0002C6.81277 16.4062 9.59477 19.1882 13.0008 19.1882C16.4068 19.1882 19.1888 16.4062 19.1888 13.0002C19.1888 9.59416 16.4068 6.81216 13.0008 6.81216ZM13.0008 18.1482C10.1668 18.1482 7.85277 15.8342 7.85277 13.0002C7.85277 10.1662 10.1668 7.85216 13.0008 7.85216C15.8348 7.85216 18.1488 10.1662 18.1488 13.0002C18.1488 15.8342 15.8348 18.1482 13.0008 18.1482Z" fill="white"/>
<path d="M427.44 -205.4V232.44H-36.4005V-205.4H427.44ZM429.52 -207.48H-38.4805V234.52H429.52V-207.48Z" fill="#0000FF"/>
</g>
<defs>
<clipPath id="clip0_248_3958">
<rect width="26" height="26" fill="white"/>
</clipPath>
</defs>
</svg>