<svg width="19" height="11" viewBox="0 0 19 11" fill="none" xmlns="http://www.w3.org/2000/svg">
<path d="M0.93 10L5.34 0.199999H7.132L11.556 10H9.652L5.858 1.166H6.586L2.806 10H0.93ZM2.96 7.732L3.45 6.304H8.742L9.232 7.732H2.96ZM17.2403 10V8.488L17.1423 8.166V5.52C17.1423 5.00667 16.9883 4.61 16.6803 4.33C16.3723 4.04067 15.9057 3.896 15.2803 3.896C14.8603 3.896 14.445 3.96133 14.0343 4.092C13.633 4.22267 13.2923 4.40467 13.0123 4.638L12.3263 3.364C12.7277 3.056 13.2037 2.82733 13.7543 2.678C14.3143 2.51933 14.893 2.44 15.4903 2.44C16.573 2.44 17.4083 2.70133 17.9963 3.224C18.5937 3.73733 18.8923 4.53533 18.8923 5.618V10H17.2403ZM14.8883 10.098C14.3283 10.098 13.8383 10.0047 13.4183 9.818C12.9983 9.622 12.6717 9.356 12.4383 9.02C12.2143 8.67467 12.1023 8.28733 12.1023 7.858C12.1023 7.438 12.2003 7.06 12.3963 6.724C12.6017 6.388 12.933 6.122 13.3903 5.926C13.8477 5.73 14.4543 5.632 15.2103 5.632H17.3803V6.794H15.3363C14.739 6.794 14.3377 6.892 14.1323 7.088C13.927 7.27467 13.8243 7.508 13.8243 7.788C13.8243 8.10533 13.9503 8.35733 14.2023 8.544C14.4543 8.73067 14.8043 8.824 15.2523 8.824C15.6817 8.824 16.0643 8.726 16.4003 8.53C16.7457 8.334 16.993 8.04467 17.1423 7.662L17.4363 8.712C17.2683 9.15067 16.965 9.49133 16.5263 9.734C16.097 9.97667 15.551 10.098 14.8883 10.098Z" fill="black"/>
</svg>