<svg width="30" height="30" viewBox="0 0 30 30" fill="none" xmlns="http://www.w3.org/2000/svg">
<path d="M15.1596 15.0004C16.1182 15.0004 17.0553 14.7161 17.8523 14.1835C18.6494 13.651 19.2706 12.894 19.6375 12.0083C20.0043 11.1227 20.1003 10.1481 19.9133 9.20794C19.7263 8.26774 19.2647 7.40411 18.5868 6.72626C17.909 6.04841 17.0454 5.58679 16.1051 5.39977C15.1649 5.21276 14.1904 5.30874 13.3048 5.67559C12.4191 6.04244 11.6621 6.66367 11.1295 7.46074C10.597 8.2578 10.3127 9.1949 10.3127 10.1535C10.3127 11.439 10.8233 12.6718 11.7323 13.5808C12.1824 14.0308 12.7167 14.3879 13.3048 14.6314C13.8928 14.875 14.5231 15.0004 15.1596 15.0004ZM15.1596 6.56289C15.872 6.5629 16.5684 6.77427 17.1606 7.17026C17.7528 7.56625 18.2142 8.12905 18.4864 8.78741C18.7586 9.44577 18.8294 10.1701 18.6897 10.8687C18.55 11.5673 18.2062 12.2087 17.7018 12.7118C17.1974 13.2149 16.5551 13.557 15.8561 13.6949C15.1572 13.8327 14.433 13.7601 13.7754 13.4862C13.1178 13.2122 12.5562 12.7494 12.1617 12.1561C11.7673 11.5629 11.5577 10.8659 11.5596 10.1535C11.5621 9.20036 11.9424 8.2871 12.6173 7.61399C13.2922 6.94089 14.2064 6.56289 15.1596 6.56289ZM17.5408 15.9379H12.7689C10.9571 15.9404 9.22021 16.6612 7.93905 17.9424C6.6579 19.2235 5.93705 20.9604 5.93457 22.7723V23.4379C5.93457 23.6045 6.00075 23.7642 6.11854 23.882C6.23634 23.9998 6.39611 24.066 6.5627 24.066H14.8971C14.9592 24.0758 15.0225 24.0758 15.0846 24.066C15.1467 24.0751 15.2099 24.0751 15.2721 24.066H23.7096C23.7952 24.0711 23.8809 24.0587 23.9615 24.0294C24.0421 24.0001 24.1158 23.9547 24.1782 23.8958C24.2405 23.837 24.2902 23.766 24.3241 23.6873C24.3579 23.6085 24.3753 23.5236 24.3752 23.4379V22.7723C24.3727 20.9604 23.6519 19.2235 22.3707 17.9424C21.0896 16.6612 19.3526 15.9404 17.5408 15.9379ZM15.4877 17.1848L16.2564 21.066L15.0846 22.5004L13.9127 21.0754L14.6721 17.1941L15.4877 17.1848ZM7.19082 22.8098C7.19077 21.326 7.77696 19.9023 8.82174 18.8488C9.86651 17.7952 11.2852 17.1971 12.7689 17.1848H13.3971L12.6283 21.1129C12.6091 21.2031 12.6109 21.2966 12.6337 21.386C12.6564 21.4755 12.6995 21.5585 12.7596 21.6285L13.6971 22.8098H7.13457H7.19082ZM23.1283 22.8098H16.4346L17.3721 21.6285C17.4303 21.5574 17.4723 21.4744 17.495 21.3853C17.5177 21.2962 17.5205 21.2032 17.5033 21.1129L16.7252 17.1848H17.5033C18.9952 17.1848 20.4259 17.7774 21.4808 18.8323C22.5357 19.8872 23.1283 21.3179 23.1283 22.8098Z" fill="black"/>
</svg>