<svg width="30" height="30" viewBox="0 0 30 30" fill="none" xmlns="http://www.w3.org/2000/svg">
<path d="M15.1586 15.0004C16.1172 15.0004 17.0543 14.7161 17.8514 14.1835C18.6484 13.651 19.2697 12.894 19.6365 12.0083C20.0034 11.1227 20.0994 10.1481 19.9123 9.20794C19.7253 8.26774 19.2637 7.40411 18.5859 6.72626C17.908 6.04841 17.0444 5.58679 16.1042 5.39977C15.164 5.21276 14.1894 5.30874 13.3038 5.67559C12.4181 6.04244 11.6611 6.66367 11.1286 7.46074C10.596 8.2578 10.3117 9.1949 10.3117 10.1535C10.3117 11.439 10.8224 12.6718 11.7313 13.5808C12.1814 14.0308 12.7157 14.3879 13.3038 14.6314C13.8918 14.875 14.5221 15.0004 15.1586 15.0004ZM15.1586 6.56289C15.871 6.5629 16.5674 6.77427 17.1596 7.17026C17.7518 7.56625 18.2132 8.12905 18.4854 8.78741C18.7576 9.44577 18.8284 10.1701 18.6887 10.8687C18.549 11.5673 18.2053 12.2087 17.7008 12.7118C17.1964 13.2149 16.5541 13.557 15.8552 13.6949C15.1562 13.8327 14.4321 13.7601 13.7744 13.4862C13.1168 13.2122 12.5552 12.7494 12.1607 12.1561C11.7663 11.5629 11.5567 10.8659 11.5586 10.1535C11.5611 9.20036 11.9415 8.2871 12.6163 7.61399C13.2912 6.94089 14.2054 6.56289 15.1586 6.56289ZM17.5398 15.9379H12.768C10.9561 15.9404 9.21923 16.6612 7.93808 17.9424C6.65692 19.2235 5.93607 20.9604 5.93359 22.7723V23.4379C5.93359 23.6045 5.99977 23.7642 6.11757 23.882C6.23536 23.9998 6.39513 24.066 6.56172 24.066H14.8961C14.9582 24.0758 15.0215 24.0758 15.0836 24.066C15.1458 24.0751 15.2089 24.0751 15.2711 24.066H23.7086C23.7942 24.0711 23.8799 24.0587 23.9605 24.0294C24.0411 24.0001 24.1148 23.9547 24.1772 23.8958C24.2395 23.837 24.2892 23.766 24.3231 23.6873C24.357 23.6085 24.3744 23.5236 24.3742 23.4379V22.7723C24.3717 20.9604 23.6509 19.2235 22.3697 17.9424C21.0886 16.6612 19.3517 15.9404 17.5398 15.9379ZM15.4867 17.1848L16.2555 21.066L15.0836 22.5004L13.9117 21.0754L14.6711 17.1941L15.4867 17.1848ZM7.18984 22.8098C7.18979 21.326 7.77599 19.9023 8.82076 18.8488C9.86554 17.7952 11.2843 17.1971 12.768 17.1848H13.3961L12.6273 21.1129C12.6081 21.2031 12.6099 21.2966 12.6327 21.386C12.6555 21.4755 12.6985 21.5585 12.7586 21.6285L13.6961 22.8098H7.13359H7.18984ZM23.1273 22.8098H16.4336L17.3711 21.6285C17.4294 21.5574 17.4713 21.4744 17.494 21.3853C17.5167 21.2962 17.5195 21.2032 17.5023 21.1129L16.7242 17.1848H17.5023C18.9942 17.1848 20.4249 17.7774 21.4798 18.8323C22.5347 19.8872 23.1273 21.3179 23.1273 22.8098Z" fill="white"/>
</svg>